  ,--,                                                             
,---.'|                                     ,----..            ,--. 
|   | :       ,---,.  ,----..      ,---,   /   /   \         ,--.'| 
:   : |     ,'  .' | /   /   \  ,`--.' |  /   .     :    ,--,:  : | 
|   ' :   ,---.'   ||   :     : |   :  : .   /   ;.  \,`--.'`|  ' : 
;   ; '   |   |   .'.   |  ;. / :   |  '.   ;   /  ` ;|   :  :  | | 
'   | |__ :   :  |-,.   ; /--`  |   :  |;   |  ; \ ; |:   |   \ | : 
|   | :.'|:   |  ;/|;   | ;  __ '   '  ;|   :  | ; | '|   : '  '; | 
'   :    ;|   :   .'|   : |.' .'|   |  |.   |  ' ' ' :'   ' ;.    ; 
|   |  ./ |   |  |-,.   | '_.' :'   :  ;'   ;  \; /  ||   | | \   | 
;   : ;   '   :  ;/|'   ; : \  ||   |  ' \   \  ',  / '   : |  ; .' 
|   ,/    |   |    \'   | '/  .''   :  |  ;   :    /  |   | '`--'   
'---'     |   :   .'|   :    /  ;   |.'    \   \ .'   '   : |       
          |   | ,'   \   \ .'   '---'       `---`     ;   |.'       
          `----'      `---`                           '---'         


LEGi0N PRESENTS

Faster 2010 CAM XviD-LEGi0N 12|05|2010 TH0RN  General

Info:

Format: AVI
File size: 700 MiB
Duration: 1h 33mn
Overall bit rate: 1 054 Kbps
IMDb Rating: 7.4/10
Genre: Action | Crime | Drama | Thriller
Release: 20 August 2010
Subs: N/A
Language: English
IMDb Link: http://www.imdb.com/title/tt1433108/
Trailer: http://www.imdb.com/video/imdb/vi4163606809/

Video Source: CAM DVDR - IMAGiNE THx!
Audio Source: CAM DVDR - IMAGiNE THx!

Video:

Sample: Yes Video
FourCC: XviD
Matrix: H.263
BVOP: Yes
QPel: No
GMC: No
Bit rate: 3 600 Kbps
Resolution: 608 x 336
DAR: 16:9
FPS: 29.970 fps
Bit depth: 8 bits
QF: 0.153
Stream size: 623 MiB Audio

Audio:

Format: CBR-Mp3
Bit rate: 104 Kbps
Channels: 2 channels
Sampling rate: 48.0 KHz
Bit rate mode: Constant
Stream size: 69.3 MiB 

Pilot:

An ex-con sets out to avenge his brother's death after
they were double-crossed during a heist years ago
During his campaign, however, he's tracked by a veteran
cop and an egocentric hit man

Cast:

Dwayne Johnson...Driver
Mauricio Lopez...Prison Guard
Jim Gaines...Inmate (as James Gaines)
Oliver Jackson-Cohen...Killer
Tom Berenger...Warden
Jan Hoag...Receptionist
Courtney Gains...Telemarketer

Greetz:

ELEKTRI4KA | Joshua08 | CRYS | BMB | LUSi
HiTM4N | DiLLoN | Killerhz | iNK | Noir
bigimac | YeFsTe | skillz | THC |
FLAWL3SS | IMAGiNE | HiVE-CM8 | Rx |
AND ALL AFFILIATED SITES!

Screens:

 
http://www.leetleech.org/images/30418828361687598967.png
 
http://www.leetleech.org/images/91596331535517330329.png
 
http://www.leetleech.org/images/63015279130023608489.png
 
http://www.leetleech.org/images/86089081818995141212.png
 
http://www.leetleech.org/images/38975687756495793048.png
 
http://www.leetleech.org/images/59957084638653864067.png


Enjoy !!!